<svg xmlns="http://www.w3.org/2000/svg" viewBox="0 0 720 720" role="img" aria-label="Healing AI travel pet companion">
  <defs>
    <radialGradient id="bg" cx=".5" cy=".42" r=".58">
      <stop offset="0" stop-color="#fff0cf" stop-opacity=".25"/>
      <stop offset=".45" stop-color="#7c4db4" stop-opacity=".18"/>
      <stop offset="1" stop-color="#130c1d" stop-opacity=".05"/>
    </radialGradient>
    <linearGradient id="fur" x1=".2" y1=".1" x2=".8" y2=".9">
      <stop offset="0" stop-color="#fff3d6"/>
      <stop offset=".52" stop-color="#f5d9ac"/>
      <stop offset="1" stop-color="#d8a982"/>
    </linearGradient>
    <linearGradient id="wing" x1="0" y1="0" x2="1" y2="1">
      <stop offset="0" stop-color="#e6c8ff"/>
      <stop offset="1" stop-color="#8d6cff"/>
    </linearGradient>
    <filter id="soft"><feGaussianBlur stdDeviation="10"/></filter>
  </defs>
  <rect width="720" height="720" fill="none"/>
  <circle cx="360" cy="332" r="265" fill="url(#bg)"/>
  <ellipse cx="360" cy="560" rx="245" ry="62" fill="#08050c" opacity=".42" filter="url(#soft)"/>
  <path d="M144 472c44-96 139-138 216-138s172 42 216 138c-63 68-151 104-216 104s-153-36-216-104z" fill="#f2cfa9"/>
  <ellipse cx="360" cy="340" rx="192" ry="174" fill="url(#fur)"/>
  <path d="M220 282c-34-72-25-142 14-180 66 36 106 92 108 154-30 18-70 27-122 26z" fill="url(#wing)"/>
  <path d="M500 282c34-72 25-142-14-180-66 36-106 92-108 154 30 18 70 27 122 26z" fill="url(#wing)"/>
  <path d="M180 340c-78-28-118-76-118-142 74 8 129 42 164 96-10 18-25 34-46 46z" fill="url(#wing)" opacity=".88"/>
  <path d="M540 340c78-28 118-76 118-142-74 8-129 42-164 96 10 18 25 34 46 46z" fill="url(#wing)" opacity=".88"/>
  <ellipse cx="286" cy="350" rx="19" ry="15" fill="#6a5264"/>
  <ellipse cx="434" cy="350" rx="19" ry="15" fill="#6a5264"/>
  <ellipse cx="360" cy="396" rx="29" ry="20" fill="#f2a784"/>
  <path d="M315 418c18 28 72 28 90 0" stroke="#7d5a66" stroke-width="9" stroke-linecap="round" fill="none"/>
  <path d="M360 438v72" stroke="#f4c982" stroke-width="7" stroke-linecap="round"/>
  <circle cx="360" cy="533" r="32" fill="none" stroke="#f4c982" stroke-width="8"/>
  <path d="M360 500l18 33-18 34-18-34z" fill="#ffe2ad" opacity=".72"/>
  <g fill="#ffe2ad" opacity=".8">
    <circle cx="180" cy="180" r="5"/>
    <circle cx="542" cy="190" r="4"/>
    <circle cx="590" cy="380" r="5"/>
    <circle cx="146" cy="402" r="4"/>
    <circle cx="250" cy="520" r="3"/>
  </g>
  <g stroke="#ffe2ad" stroke-opacity=".28" fill="none">
    <ellipse cx="360" cy="354" rx="248" ry="224"/>
    <ellipse cx="360" cy="354" rx="204" ry="184"/>
  </g>
</svg>
